<svg width="17" height="17" viewBox="0 0 17 17" fill="none" xmlns="http://www.w3.org/2000/svg">
<path d="M13.8358 4.78125H11.6874V3.85263C11.6874 2.10747 10.3423 0.58544 8.59822 0.532846C6.79304 0.478658 5.31244 1.92578 5.31244 3.71875V4.78125H3.16407C2.87985 4.78125 2.6461 5.00491 2.63335 5.2886L2.20091 14.8028C2.15947 15.7101 2.8841 16.4688 3.79254 16.4688H13.2068C14.1153 16.4688 14.8404 15.7101 14.799 14.8028L14.3665 5.2886C14.3538 5.00491 14.12 4.78125 13.8358 4.78125ZM5.84369 3.71875C5.84369 2.2541 7.03529 1.0625 8.49994 1.0625C9.9646 1.0625 11.1562 2.2541 11.1562 3.71875V4.78125H10.6249V3.71875C10.6249 2.54681 9.67188 1.59375 8.49994 1.59375C7.32801 1.59375 6.37494 2.54681 6.37494 3.71875V4.78125H5.84369V3.71875ZM10.0937 4.78125H6.90619V3.71875C6.90619 2.83847 7.61966 2.125 8.49994 2.125C9.38022 2.125 10.0937 2.83847 10.0937 3.71875V4.78125ZM2.73163 14.8267L3.16407 5.3125H13.8363L14.2688 14.8267C14.2959 15.4318 13.813 15.9375 13.2073 15.9375H3.79254C3.18691 15.9375 2.70401 15.4318 2.73163 14.8267Z" fill="white"/>
</svg>
