<svg width="128" height="20" viewBox="0 0 128 20" fill="none" xmlns="http://www.w3.org/2000/svg">
<path d="M17.7586 5.73201L14.268 2.24061C14.1519 2.1245 14.0141 2.0324 13.8624 1.96957C13.7107 1.90673 13.5482 1.87439 13.384 1.87439C13.2198 1.87439 13.0572 1.90673 12.9056 1.96957C12.7539 2.0324 12.6161 2.1245 12.5 2.24061L2.86641 11.875C2.74983 11.9906 2.65741 12.1283 2.59451 12.28C2.5316 12.4317 2.49948 12.5944 2.50001 12.7586V16.25C2.50001 16.5815 2.6317 16.8994 2.86612 17.1339C3.10054 17.3683 3.41849 17.5 3.75001 17.5H7.24141C7.40563 17.5005 7.5683 17.4684 7.71999 17.4055C7.87168 17.3426 8.00935 17.2502 8.12501 17.1336L17.7586 7.49998C17.8747 7.3839 17.9668 7.24609 18.0296 7.09442C18.0925 6.94274 18.1248 6.78017 18.1248 6.616C18.1248 6.45182 18.0925 6.28925 18.0296 6.13758C17.9668 5.9859 17.8747 5.84809 17.7586 5.73201ZM7.24141 16.25H3.75001V12.7586L10.625 5.88358L14.1164 9.37498L7.24141 16.25ZM15 8.49061L11.5086 4.99998L13.3836 3.12498L16.875 6.61561L15 8.49061Z" fill="#2F51C8"/>
</svg>
