<svg width="36" height="36" viewBox="0 0 36 36" fill="none" xmlns="http://www.w3.org/2000/svg">
<path d="M36 18C36 27.9411 27.9411 36 18 36C8.05888 36 0 27.9411 0 18C0 8.05888 8.05888 0 18 0C27.9411 0 36 8.05888 36 18Z" fill="#451544"/>
<path d="M15.5045 24.8944C15.5779 24.9621 15.6769 25 15.7802 25C15.7839 25 15.7877 25 15.7912 25C15.8985 24.9973 15.9994 24.9536 16.0708 24.8795L27.9009 12.6016C28.0444 12.4528 28.0304 12.2244 27.8696 12.0917C27.709 11.9588 27.4625 11.972 27.3194 12.1205L15.7639 24.1135L9.66525 18.4637C9.51297 18.3226 9.26622 18.3226 9.11421 18.4637C8.96193 18.6048 8.96193 18.8334 9.11421 18.9745L15.5045 24.8944Z" fill="white" stroke="white"/>
</svg>
