<svg width="72" height="32" viewBox="0 0 72 32" fill="none" xmlns="http://www.w3.org/2000/svg">
<path d="M13.1246 8.64823C13.1246 9.25278 13.1442 12.2105 13.1442 12.2105H10.8284V16L13.1246 15.9931L13.1442 28H17.7757V16L20.742 15.9931C20.742 15.9931 20.9661 14.3289 21.1047 12.2105C20.7067 12.2105 17.7757 12.2105 17.7757 12.2105C17.7757 12.2105 17.7004 9.58638 17.7004 9.17465C17.7004 8.76185 18.1974 8.20638 18.6887 8.20638H21.1722C21.1722 7.65627 21.1722 5.75547 21.1722 4C19.8928 4 18.4374 4 17.7955 4C13.0119 4 13.1246 8.04425 13.1246 8.64823Z" fill="#451544"/>
<path d="M70.3708 9.13655C70.2056 8.53798 69.8758 7.99071 69.4145 7.54962C68.953 7.10852 68.3764 6.7891 67.7421 6.62338C65.395 6.00611 55.9909 6.00611 55.9909 6.00611C52.0697 5.96185 48.1495 6.15821 44.2555 6.59399C43.621 6.77182 43.0452 7.09859 42.5826 7.54347C42.1199 7.98834 41.7855 8.53661 41.6111 9.13655C41.1904 11.4027 40.9862 13.6997 41.0008 16C40.9852 18.3003 41.1894 20.5974 41.6111 22.8635C41.7819 23.4618 42.1156 24.0081 42.5792 24.4488C43.0428 24.8894 43.6205 25.2091 44.2555 25.3766C46.6339 25.9939 55.9909 25.9939 55.9909 25.9939C59.9174 26.0382 63.8429 25.8418 67.7421 25.406C68.3764 25.2403 68.953 24.9209 69.4145 24.4798C69.8758 24.0387 70.2056 23.4914 70.3708 22.8929C70.8023 20.6278 71.0117 18.3304 70.9968 16.0294C71.0291 13.7181 70.8194 11.4093 70.3708 9.13655ZM53.0023 20.2769V11.7232L60.826 16L53.0023 20.2769Z" fill="#451544"/>
</svg>
