<svg width="12" height="12" viewBox="0 0 12 12" fill="none" xmlns="http://www.w3.org/2000/svg">
<path fill-rule="evenodd" clip-rule="evenodd" d="M5.0488 9.17161C2.68944 9.17161 0.776831 7.29229 0.776831 4.97031C0.776831 2.64833 2.68944 0.765255 5.0488 0.765255C7.40816 0.765255 9.32116 2.64833 9.32116 4.97031C9.32116 7.29229 7.40816 9.17161 5.0488 9.17161ZM11.8861 11.3473L8.78814 8.29761C9.5991 7.41608 10.0976 6.25322 10.0976 4.97031C10.0976 2.22445 7.83727 0 5.0488 0C2.26033 0 0 2.22445 0 4.97031C0 7.71242 2.26033 9.93687 5.0488 9.93687C6.25361 9.93687 7.35865 9.5205 8.22663 8.82654L11.3369 11.8875C11.4888 12.0375 11.7345 12.0375 11.8861 11.8875C12.038 11.7412 12.038 11.4974 11.8861 11.3473Z" fill="white"/>
</svg>
