<svg width="19" height="19" viewBox="0 0 19 19" fill="none" xmlns="http://www.w3.org/2000/svg">
<g clip-path="url(#clip0_1_276)">
<mask id="mask0_1_276" style="mask-type:luminance" maskUnits="userSpaceOnUse" x="0" y="0" width="19" height="19">
<path d="M19 0H0V19H19V0Z" fill="white"/>
</mask>
<g mask="url(#mask0_1_276)">
<path d="M8.31246 13.4583C11.1544 13.4583 13.4583 11.1545 13.4583 8.31249C13.4583 5.47052 11.1544 3.16666 8.31246 3.16666C5.47049 3.16666 3.16663 5.47052 3.16663 8.31249C3.16663 11.1545 5.47049 13.4583 8.31246 13.4583Z" stroke="#451544" stroke-linejoin="round"/>
<path d="M15.5533 16.1133C15.7079 16.2678 15.9586 16.2678 16.1132 16.1133C16.2677 15.9586 16.2677 15.708 16.1132 15.5534L15.5533 16.1133ZM16.1132 15.5534L12.1548 11.5951L11.595 12.1549L15.5533 16.1133L16.1132 15.5534Z" fill="#451544"/>
</g>
</g>
<defs>
<clipPath id="clip0_1_276">
<rect width="19" height="19" fill="white"/>
</clipPath>
</defs>
</svg>
